<svg width="118" height="40" viewBox="0 0 118 40" fill="none" xmlns="http://www.w3.org/2000/svg">
<g clip-path="url(#clip0_4_5650)">
<path d="M116.265 1.75439H1.73529V38.2456H116.265V1.75439Z" stroke="white" stroke-width="5"/>
<path d="M17.8031 11.0474H10.9604V29.3211H15.0904V23.5779H17.8017C18.6257 23.5932 19.4446 23.4425 20.2105 23.1347C20.9764 22.8269 21.674 22.368 22.2628 21.7849C22.8516 21.2018 23.3197 20.5061 23.6399 19.7383C23.9601 18.9705 24.126 18.1459 24.1279 17.3126C24.126 16.4795 23.9601 15.6551 23.64 14.8873C23.3199 14.1196 22.8519 13.4239 22.2633 12.8409C21.6747 12.2578 20.9772 11.7989 20.2114 11.491C19.4457 11.1831 18.627 11.0323 17.8031 11.0474ZM17.8031 19.6621H15.0904V14.9632H17.8017C18.1006 14.9646 18.3962 15.0275 18.6704 15.1478C18.9446 15.2682 19.1919 15.4436 19.3971 15.6634C19.6023 15.8832 19.7612 16.1428 19.8642 16.4266C19.9673 16.7103 20.0123 17.0122 19.9965 17.314C20.0119 17.6155 19.9666 17.917 19.8635 18.2003C19.7604 18.4837 19.6015 18.7429 19.3965 18.9624C19.1915 19.1818 18.9446 19.357 18.6707 19.4773C18.3968 19.5975 18.1017 19.6604 17.8031 19.6621ZM34.6646 16.2684V17.4965C33.8125 16.5046 32.5475 15.9042 30.8171 15.9042C27.4346 15.9042 24.6457 18.9063 24.6457 22.7961C24.6457 26.686 27.4346 29.6853 30.8171 29.6853C32.5472 29.6853 33.8122 29.0849 34.6646 28.093V29.3211H38.5377V16.2684H34.6646ZM31.5917 25.9797C29.8099 25.9797 28.5188 24.7516 28.5188 22.7947C28.5188 20.8379 29.8099 19.6098 31.5917 19.6098C33.3735 19.6098 34.6646 20.8379 34.6646 22.7947C34.6646 24.7516 33.3735 25.9797 31.5917 25.9797ZM45.2499 18.5919V16.2684H41.3781V29.3211H45.2499V23.4211C45.2499 20.8365 47.5221 20.1839 49.123 20.4449V16.007C47.4978 16.0074 45.7677 16.8432 45.2499 18.5919ZM63.3247 29.3214L58.4961 22.7951L63.1956 16.2688H58.6769L54.8037 21.986V11.0477H50.9305V29.3214H54.8037V23.5519L58.9337 29.3214H63.3247ZM80.9865 16.2688L77.5506 27.6246L73.9357 16.2688H72.5929L68.9779 27.6246L65.542 16.2688H64.1784L68.2581 29.3214H69.6783L73.2676 18.2004L76.8565 29.3211H78.2767L82.3563 16.2684L80.9865 16.2688ZM90.4886 15.9818C86.5381 15.9818 83.8008 18.9579 83.8008 22.7954C83.8008 26.7372 86.6155 29.6091 90.5917 29.6091C93.1481 29.6091 95.1621 28.4344 96.2207 26.6593L95.0844 25.9807C94.3354 27.3642 92.7348 28.3561 90.6174 28.3561C87.6736 28.3561 85.4532 26.4242 85.1432 23.4744H96.8391C96.8391 23.2639 96.8648 23.0568 96.8648 22.8477C96.8683 19.2705 94.4153 15.9814 90.4904 15.9814L90.4886 15.9818ZM90.4886 17.2347C93.019 17.2347 95.2399 19.0098 95.5238 22.1947H85.1453C85.4046 19.2969 87.5466 17.2344 90.4904 17.2344L90.4886 17.2347ZM99.8877 29.3214H101.179V10.2642H99.8877V29.3214ZM105.155 29.3214H106.446V10.2642H105.155V29.3214Z" fill="white"/>
</g>
<defs>
<clipPath id="clip0_4_5650">
<rect width="118" height="40" fill="white"/>
</clipPath>
</defs>
</svg>
